<?xml version="1.0" encoding="utf-8"?>
<!-- Generator: Adobe Illustrator 23.0.3, SVG Export Plug-In . SVG Version: 6.00 Build 0)  -->
<svg version="1.1" id="Layer_1" xmlns="http://www.w3.org/2000/svg" xmlns:xlink="http://www.w3.org/1999/xlink" x="0px" y="0px"
	 viewBox="0 0 807.6 1229.1" style="enable-background:new 0 0 807.6 1229.1;" xml:space="preserve">
<style type="text/css">
	.st0{fill:#C1B3A0;}
	.st1{fill:#753A1C;}
	.st2{fill:#212830;}
	.st3{fill:#AA6130;}
	.st4{fill:#FFFFFF;}
	.st5{fill:#3C4858;}
</style>
<g>
	<g>
		<path class="st5" d="M600.09,660.69c-10.51-104.24-54.07-308.35-67.21-351.2c-4.29-13.97-4.85-18.86-6.82-23.23
			c-0.04,0.01-0.08,0.01-0.12,0.02c0.01-21.32-6.06-60.88-16.43-84.62c-30.03-68.36-57.71-100.85-96.19-133.43
			C366.83,28.93,262.29-4.16,193.06,0.43c-7.08,0.46-8.03-0.04-17.14,0.61c-9.36,0.67-18.45-0.08-22.47,1.17
			c0.01,0.17,0.02,0.22,0,0c0,0,0,0,0,0c2.31,24.49,5.23,31.79,6.33,43.42c0.96,6.94,2.09,9.17,3.04,12.82
			c0.55,2.13,0.94,4.3,1.5,6.42c1.46,5.48,0.65,1.15,5.51,19.68c3.06,7.54,4.04,8.95,9.27,21.62
			c26.34,63.74,77.82,114.67,135.13,152.56c3.06,2.02,22.15,14.1,26.93,16.8c6.55,3.71,9.1,4.22,27.77,13.3
			c2.5,1.17,6.84,3.49,12.24,5.47c4.1,1.51,8.16,2.56,13.14,3.95c41.31,11.41,29.05,9.91,46.89,12.19
			c10.01,1.29,9.06,2.46,24.3,2.68c1.31,0.02,2.65,0.04,3.99,0.08c-17.3,28.75-47.38,96.01-58.95,117.68
			c-15.53,28.98-12.04,25.08-24.34,47.96c-9.55,17.71-12.22,24.31-15.09,29.59c-0.07,0.12-5.33,9.74-5,9.14
			c-17.29,31.62-27.37,66.26-57.25,122c-31.68,57.17-27.51,54.78-53.83,101.52c-45.79,81.19-51.43,93.72-91.27,150.21
			c-2.37,3.35,1,9.2,6.08,7.91c2.54-0.66,3.29-2.66,5.65-5.84l3.87-5.48c1.56,1.86,3.54,1.92,5.06,2.49
			c10.76,3.16,17.42,5.09,27.61,6.63c12.97,1.94,12.01,4.56,22.74-9.68l-0.26,0.27c2.92-3.78,5.9-8.03,9.15-12.98
			c8.4-12.8,12.16-16.39,19.25-25.84c6.45-8.61,15.88-24.7,15.81-24.58c54.21-88.99,52.79-97.33,75.86-137.62
			c56.74-99.05,40.26-84.43,83.54-165.62c3.84-7.16,4.82-9.95,15.32-30.67c10.29-20.3,11.68-23.37,17.07-36.76
			c10.9-26.62,4.54-10.71,23.78-52.89c0.02,0.12,1.79,10.93,1.68,10.25c0.02,0.12,0.9,5.3,0.84,4.98
			c6.72,39.28,14.45,121.91,14.43,121.8c0.4,3.29,0.77,5.48,2.29,15.58c23.4,156.66,23.4,151.02,23.38,150.91
			c0.03,0.2,3.78,23.31,7.79,45.62c10.96,60.97,11.42,62.33,14.8,66.28c7.03,8.09,30.41,9.35,41.29-0.52c3,4.53,9.81,1.84,9.66-3.02
			C609.28,770.75,599.51,654.9,600.09,660.69z"/>
		<path class="st5" d="M716.79,77.16c-14.31,1.08-18.41,0.17-32.97,3.34c-9.55,2.03-20.23,4-41.09,14.77
			c-1.86,0.96-3.82,1.81-5.71,2.64l-1.33,0.59c-8.45,3.72-38.3,22.65-48.66,34.25c-28.55,31.92-39.36,86.98-36.19,129.36
			c0.03,0.02,0.05,0.04,0.08,0.05c2.47-0.15,17.65,0.58,46.7-1.78c12.25-1,8.05-0.25,21.25-3.33
			c50.98-11.95,65.19-22.28,83.31-39.53c12.58-11.94,16.51-19.64,20.73-28.25c17.42-35.51,21.07-58.08,22.57-100.43
			C745.93,73.8,730.89,76.11,716.79,77.16z"/>
	</g>
	<g>
		<path class="st1" d="M799.12,933.68c-2.26-5.7-6.62-16.64-8.92-22.22l0,0l-0.07-0.16l0.01,0.03
			c-10.48-26.06-8.89-22.44-30.68-49.68c-7.09-8.85-23.7-24.56-24.19-25.01c-16.48-15.26-3.58-5.07-29.33-23.19
			c-9.94-8-14.63-7.53-27.07-13.38c-15.08-7.09-21.84-9.15-47.68-10.93c-2.39-0.17-4.59-0.18-6.85-0.16
			c-14.41-1.75-46.68,0.09-61.89,5.09c-12.36,4.05-22.16,9.55-24.8,10.68c-10.67,4.52-28.45,18.64-36.9,27.34
			c-30.81,23.05-47.31,57.85-47.87,58.66c-16.14,24.95-21.73,50.77-26.55,80.9c-2.47,15.59-3.32,26.09-2.05,42.49
			c6.77,87.4,69.92,116.33,73.72,120.08l1.44,0.95c15.81,10.45,43.53,22.16,69.43,25.67c61.85,8.42,81.85,14.13,135.64-9.39
			c5.49-2.58,10.1-4.14,19.38-11.72c31.37-25.53,36.62-37.25,41.1-42.19C798.79,1053.03,820.45,987.25,799.12,933.68z"/>
		<path class="st3" d="M356.19,980.07c-3.51-8.47-18.93-33.67-29.65-44.94c-11.48-12.09-5.53-8.57-24.37-24.61
			c-8.18-6.95-8.82-8.45-22.47-15.16c-13.68-6.74-41.97-15.73-61.55-17.87c-14.4-1.59-31.38-2.51-45.9-0.88
			c-41.04,4.58-54.23,16.11-68.64,24.06c-7.81,4.3-12.87,6.77-22.41,14.05c0.34-0.26,0.69-0.52,1.03-0.79
			c-15.21,11.65-19.78,17.2-40.49,40.7c-39.07,44.56-53.82,132.75-30.86,182.29c3.13,6.77,11.31,20,13.7,23.41
			c10.14,14.53,41.01,37.93,50.18,43.47c13.98,8.46,39.12,15.29,39.01,15.25c36.88,11.41,111.68,16.49,149.36-3.51
			c11.88-6.22,9.02-4.79,12.31-6.84c0.12-0.08,5.78-3.61,5.42-3.39c47.7-29.89,81-80.29,86.53-143.78
			c0.76-8.74,1.31-18.93-0.3-29.07C366.58,1029.05,367.08,1006.22,356.19,980.07z"/>
	</g>
</g>
</svg>
