{
  "asset": {
    "version": "2.0",
    "generator": "THREE.GLTFExporter"
  },
  "scenes": [
    {
      "name": "Scene",
      "nodes": [
        3,
        4,
        5,
        6
      ]
    }
  ],
  "scene": 0,
  "nodes": [
    {
      "matrix": [
        -0.3135442460542818,
        -0.015735209135181148,
        0.13305918262794084,
        0,
        0.014770438432753052,
        1.5127026366543528,
        0.21369346947962634,
        0,
        -0.27057480577856763,
        0.09118836160714405,
        -0.6268060865071116,
        0,
        0.01800972782075405,
        -0.0706782341003418,
        0.16016817092895508,
        1
      ],
      "name": "Cube",
      "extras": {
        "name": "Cube"
      },
      "mesh": 0
    },
    {
      "matrix": [
        -0.37083338861004433,
        -0.018610263136759175,
        0.15737105113726008,
        0,
        0.017469217684736936,
        1.7890959548900092,
        0.2527384514103742,
        0,
        -0.32001281893013706,
        0.10784982203924891,
        -0.741332815849319,
        0,
        0.004067048896104097,
        -0.06597930192947388,
        0.12786896526813507,
        1
      ],
      "name": "Cube001",
      "extras": {
        "name": "Cube.001"
      },
      "mesh": 1
    },
    {
      "matrix": [
        -0.007826384776589016,
        -0.8015352305741961,
        -0.11322971486244611,
        0,
        -0.744411346720945,
        -0.037358337074491675,
        0.31590655884258423,
        0,
        -0.042873275564934275,
        0.014449042422107677,
        -0.09931912479911524,
        0,
        -0.021454745903611183,
        -2.387214183807373,
        -0.20529292523860931,
        1
      ],
      "name": "Plane",
      "extras": {
        "name": "Plane"
      },
      "mesh": 2
    },
    {
      "name": "ice_cream.gltf",
      "children": [
        0,
        1,
        2
      ]
    },
    {
      "name": "AmbientLight"
    },
    {
      "matrix": [
        1,
        0,
        0,
        0,
        0,
        1,
        0,
        0,
        0,
        0,
        1,
        0,
        5,
        10,
        7.5,
        1
      ],
      "name": "SpotLight",
      "extensions": {
        "KHR_lights_punctual": {
          "light": 0
        }
      }
    },
    {
      "matrix": [
        1,
        0,
        0,
        0,
        0,
        1,
        0,
        0,
        0,
        0,
        1,
        0,
        -0.5473234324871954,
        2.8862091620468617,
        -1.417197467455993,
        1
      ],
      "name": "PointLight",
      "extensions": {
        "KHR_lights_punctual": {
          "light": 1
        }
      }
    }
  ],
  "bufferViews": [
    {
      "buffer": 0,
      "byteOffset": 0,
      "byteLength": 13260,
      "target": 34962,
      "byteStride": 12
    },
    {
      "buffer": 0,
      "byteOffset": 13260,
      "byteLength": 13260,
      "target": 34962,
      "byteStride": 12
    },
    {
      "buffer": 0,
      "byteOffset": 26520,
      "byteLength": 8840,
      "target": 34962,
      "byteStride": 8
    },
    {
      "buffer": 0,
      "byteOffset": 35360,
      "byteLength": 12288,
      "target": 34963
    },
    {
      "buffer": 0,
      "byteOffset": 47648,
      "byteLength": 13260,
      "target": 34962,
      "byteStride": 12
    },
    {
      "buffer": 0,
      "byteOffset": 60908,
      "byteLength": 13260,
      "target": 34962,
      "byteStride": 12
    },
    {
      "buffer": 0,
      "byteOffset": 74168,
      "byteLength": 8840,
      "target": 34962,
      "byteStride": 8
    },
    {
      "buffer": 0,
      "byteOffset": 83008,
      "byteLength": 96,
      "target": 34962,
      "byteStride": 12
    },
    {
      "buffer": 0,
      "byteOffset": 83104,
      "byteLength": 96,
      "target": 34962,
      "byteStride": 12
    },
    {
      "buffer": 0,
      "byteOffset": 83200,
      "byteLength": 64,
      "target": 34962,
      "byteStride": 8
    },
    {
      "buffer": 0,
      "byteOffset": 83264,
      "byteLength": 36,
      "target": 34963
    }
  ],
  "buffers": [
    {
      "byteLength": 83300,
      "uri": "data:application/octet-stream;base64,"
    }
  ],
  "accessors": [
    {
      "bufferView": 0,
      "componentType": 5126,
      "count": 1105,
      "max": [
        0.9781733751296997,
        0.901613712310791,
        0.9332685470581055
      ],
      "min": [
        -0.9781733751296997,
        -0.9642271995544434,
        -0.7948887944221497
      ],
      "type": "VEC3"
    },
    {
      "bufferView": 1,
      "componentType": 5126,
      "count": 1105,
      "max": [
        0.9999969005584717,
        0.9999489188194275,
        0.9999710917472839
      ],
      "min": [
        -0.9999969005584717,
        -0.9999852180480957,
        -0.9996201395988464
      ],
      "type": "VEC3"
    },
    {
      "bufferView": 2,
      "componentType": 5126,
      "count": 1105,
      "max": [
        0.8750001192092896,
        1
      ],
      "min": [
        0.125,
        -1.1920928955078125e-7
      ],
      "type": "VEC2"
    },
    {
      "bufferView": 3,
      "componentType": 5123,
      "count": 6144,
      "max": [
        1104
      ],
      "min": [
        0
      ],
      "type": "SCALAR"
    },
    {
      "bufferView": 4,
      "componentType": 5126,
      "count": 1105,
      "max": [
        1.0337411165237427,
        0.8998574614524841,
        0.9342575669288635
      ],
      "min": [
        -0.941582977771759,
        -0.9642271995544434,
        -0.7906818389892578
      ],
      "type": "VEC3"
    },
    {
      "bufferView": 5,
      "componentType": 5126,
      "count": 1105,
      "max": [
        0.9999371767044067,
        0.9999688267707825,
        0.99993497133255
      ],
      "min": [
        -0.999944806098938,
        -0.9999852180480957,
        -1
      ],
      "type": "VEC3"
    },
    {
      "bufferView": 6,
      "componentType": 5126,
      "count": 1105,
      "max": [
        0.8750001192092896,
        1
      ],
      "min": [
        0.125,
        -1.1920928955078125e-7
      ],
      "type": "VEC2"
    },
    {
      "bufferView": 7,
      "componentType": 5126,
      "count": 8,
      "max": [
        1.0978695154190063,
        0,
        1
      ],
      "min": [
        -1,
        -7.389783451827725e-9,
        -1
      ],
      "type": "VEC3"
    },
    {
      "bufferView": 8,
      "componentType": 5126,
      "count": 8,
      "max": [
        7.552792880005654e-8,
        1,
        0
      ],
      "min": [
        0,
        1,
        0
      ],
      "type": "VEC3"
    },
    {
      "bufferView": 9,
      "componentType": 5126,
      "count": 8,
      "max": [
        1,
        1
      ],
      "min": [
        0,
        0
      ],
      "type": "VEC2"
    },
    {
      "bufferView": 10,
      "componentType": 5123,
      "count": 18,
      "max": [
        7
      ],
      "min": [
        0
      ],
      "type": "SCALAR"
    }
  ],
  "materials": [
    {
      "pbrMetallicRoughness": {
        "metallicFactor": 0,
        "roughnessFactor": 0.5
      },
      "doubleSided": true,
      "name": "Material.005"
    },
    {
      "pbrMetallicRoughness": {
        "baseColorFactor": [
          0.07999776303768158,
          0.024010339751839638,
          0.0013480016496032476,
          1
        ],
        "metallicFactor": 0,
        "roughnessFactor": 0.5
      },
      "doubleSided": true,
      "name": "Material.004"
    },
    {
      "pbrMetallicRoughness": {
        "metallicFactor": 0,
        "roughnessFactor": 0.5
      },
      "doubleSided": true,
      "name": "Material.003"
    }
  ],
  "meshes": [
    {
      "primitives": [
        {
          "mode": 4,
          "attributes": {
            "POSITION": 0,
            "NORMAL": 1,
            "TEXCOORD_0": 2
          },
          "indices": 3,
          "material": 0
        }
      ]
    },
    {
      "primitives": [
        {
          "mode": 4,
          "attributes": {
            "POSITION": 4,
            "NORMAL": 5,
            "TEXCOORD_0": 6
          },
          "indices": 3,
          "material": 1
        }
      ]
    },
    {
      "primitives": [
        {
          "mode": 4,
          "attributes": {
            "POSITION": 7,
            "NORMAL": 8,
            "TEXCOORD_0": 9
          },
          "indices": 10,
          "material": 2
        }
      ]
    }
  ],
  "extensions": {
    "KHR_lights_punctual": {
      "lights": [
        {
          "name": "SpotLight",
          "color": [
            1,
            1,
            1
          ],
          "intensity": 1,
          "type": "spot",
          "spot": {
            "innerConeAngle": 0.3141592653589793,
            "outerConeAngle": 0.3141592653589793
          }
        },
        {
          "name": "PointLight",
          "color": [
            1,
            1,
            1
          ],
          "intensity": 1,
          "type": "point"
        }
      ]
    }
  },
  "extensionsUsed": [
    "KHR_lights_punctual"
  ]
}