{
  "accessors": [
    {
      "bufferView": 2,
      "componentType": 5126,
      "count": 65532,
      "max": [
        37.35054016113281,
        2.335690498352051,
        23.921154022216797
      ],
      "min": [
        0.040924072265625,
        -10.945844650268555,
        -15.527915954589844
      ],
      "type": "VEC3"
    },
    {
      "bufferView": 2,
      "byteOffset": 786384,
      "componentType": 5126,
      "count": 65532,
      "max": [
        0.9999055862426758,
        0.9997318387031555,
        0.9999918341636658
      ],
      "min": [
        -0.9999875426292419,
        -0.9999974370002747,
        -0.9999953508377075
      ],
      "type": "VEC3"
    },
    {
      "bufferView": 1,
      "componentType": 5126,
      "count": 65532,
      "max": [
        0.9987789988517761,
        0.9821779727935791
      ],
      "min": [
        0.00024399999529123306,
        0.0012209999840706587
      ],
      "type": "VEC2"
    },
    {
      "bufferView": 0,
      "componentType": 5125,
      "count": 219015,
      "type": "SCALAR"
    },
    {
      "bufferView": 2,
      "byteOffset": 1572768,
      "componentType": 5126,
      "count": 65532,
      "max": [
        37.56665802001953,
        2.1477904319763184,
        23.086326599121094
      ],
      "min": [
        -1.8596363067626953,
        -10.831792831420898,
        -15.328142166137695
      ],
      "type": "VEC3"
    },
    {
      "bufferView": 2,
      "byteOffset": 2359152,
      "componentType": 5126,
      "count": 65532,
      "max": [
        0.9999192953109741,
        0.9996148347854614,
        0.9999918341636658
      ],
      "min": [
        -0.9999793171882629,
        -0.9999711513519287,
        -0.9999153017997742
      ],
      "type": "VEC3"
    },
    {
      "bufferView": 1,
      "byteOffset": 524256,
      "componentType": 5126,
      "count": 65532,
      "max": [
        0.9987789988517761,
        0.9821779727935791
      ],
      "min": [
        0.00024399999529123306,
        0.0012209999840706587
      ],
      "type": "VEC2"
    },
    {
      "bufferView": 0,
      "byteOffset": 876060,
      "componentType": 5125,
      "count": 171396,
      "type": "SCALAR"
    },
    {
      "bufferView": 2,
      "byteOffset": 3145536,
      "componentType": 5126,
      "count": 25929,
      "max": [
        29.063217163085938,
        1.7816224098205566,
        23.921154022216797
      ],
      "min": [
        11.547428131103516,
        -10.368868827819824,
        -15.651700973510742
      ],
      "type": "VEC3"
    },
    {
      "bufferView": 2,
      "byteOffset": 3456684,
      "componentType": 5126,
      "count": 25929,
      "max": [
        0.9999032616615295,
        0.9971482753753662,
        0.9999842047691345
      ],
      "min": [
        -0.9994470477104187,
        -0.9999968409538269,
        -0.9999814033508301
      ],
      "type": "VEC3"
    },
    {
      "bufferView": 1,
      "byteOffset": 1048512,
      "componentType": 5126,
      "count": 25929,
      "max": [
        0.9987789988517761,
        0.9807130098342896
      ],
      "min": [
        0.00024399999529123306,
        0.0012209999840706587
      ],
      "type": "VEC2"
    },
    {
      "bufferView": 0,
      "byteOffset": 1561644,
      "componentType": 5125,
      "count": 67719,
      "type": "SCALAR"
    },
    {
      "bufferView": 2,
      "byteOffset": 3767832,
      "componentType": 5126,
      "count": 542,
      "max": [
        23.341835021972656,
        23.340253829956055,
        1.0647737979888916
      ],
      "min": [
        -23.33551597595215,
        -23.340255737304688,
        0.0
      ],
      "type": "VEC3"
    },
    {
      "bufferView": 2,
      "byteOffset": 3774336,
      "componentType": 5126,
      "count": 542,
      "max": [
        0.99083012342453,
        0.990763247013092,
        1.0
      ],
      "min": [
        -0.9905620217323303,
        -0.9907631278038025,
        -1.0
      ],
      "type": "VEC3"
    },
    {
      "bufferView": 1,
      "byteOffset": 1255944,
      "componentType": 5126,
      "count": 542,
      "max": [
        1.016011118888855,
        1.0
      ],
      "min": [
        -0.016455842182040215,
        0.0
      ],
      "type": "VEC2"
    },
    {
      "bufferView": 0,
      "byteOffset": 1832520,
      "componentType": 5125,
      "count": 1608,
      "type": "SCALAR"
    }
  ],
  "asset": {
    "extras": {
      "author": "Siavash Razavi (https://sketchfab.com/sia7ash)",
      "license": "CC-BY-4.0 (http://creativecommons.org/licenses/by/4.0/)",
      "source": "https://sketchfab.com/3d-models/strawberry-cake-90b03e4e1ce24f5592bbfbb15b41c442",
      "title": "strawberry Cake"
    },
    "generator": "Sketchfab-12.67.0",
    "version": "2.0"
  },
  "bufferViews": [
    {
      "buffer": 0,
      "byteLength": 1838952,
      "name": "floatBufferViews",
      "target": 34963
    },
    {
      "buffer": 0,
      "byteLength": 1260280,
      "byteOffset": 1838952,
      "byteStride": 8,
      "name": "floatBufferViews",
      "target": 34962
    },
    {
      "buffer": 0,
      "byteLength": 3780840,
      "byteOffset": 3099232,
      "byteStride": 12,
      "name": "floatBufferViews",
      "target": 34962
    }
  ],
  "buffers": [
    {
      "byteLength": 6880072,
      "uri": "scene.bin"
    }
  ],
  "extensionsUsed": [
    "KHR_materials_unlit"
  ],
  "images": [
    {
      "uri": "textures/Material_37_baseColor.jpeg"
    }
  ],
  "materials": [
    {
      "doubleSided": true,
      "extensions": {
        "KHR_materials_unlit": {}
      },
      "name": "Cone001__0",
      "pbrMetallicRoughness": {
        "metallicFactor": 0.0
      }
    },
    {
      "doubleSided": true,
      "extensions": {
        "KHR_materials_unlit": {}
      },
      "name": "Material_37",
      "pbrMetallicRoughness": {
        "baseColorTexture": {
          "index": 0
        },
        "metallicFactor": 0.0
      }
    }
  ],
  "meshes": [
    {
      "name": "default001_Material #37_0",
      "primitives": [
        {
          "attributes": {
            "NORMAL": 1,
            "POSITION": 0,
            "TEXCOORD_0": 2
          },
          "indices": 3,
          "material": 1,
          "mode": 4
        }
      ]
    },
    {
      "name": "default001_Material #37_0",
      "primitives": [
        {
          "attributes": {
            "NORMAL": 5,
            "POSITION": 4,
            "TEXCOORD_0": 6
          },
          "indices": 7,
          "material": 1,
          "mode": 4
        }
      ]
    },
    {
      "name": "default001_Material #37_0",
      "primitives": [
        {
          "attributes": {
            "NORMAL": 9,
            "POSITION": 8,
            "TEXCOORD_0": 10
          },
          "indices": 11,
          "material": 1,
          "mode": 4
        }
      ]
    },
    {
      "name": "Cone001__0",
      "primitives": [
        {
          "attributes": {
            "NORMAL": 13,
            "POSITION": 12,
            "TEXCOORD_0": 14
          },
          "indices": 15,
          "material": 0,
          "mode": 4
        }
      ]
    }
  ],
  "nodes": [
    {
      "children": [
        1
      ],
      "matrix": [
        1.0,
        0.0,
        0.0,
        0.0,
        0.0,
        2.220446049250313e-16,
        -1.0,
        0.0,
        0.0,
        1.0,
        2.220446049250313e-16,
        0.0,
        0.0,
        0.0,
        0.0,
        1.0
      ],
      "name": "Sketchfab_model"
    },
    {
      "children": [
        2
      ],
      "matrix": [
        1.0,
        0.0,
        0.0,
        0.0,
        0.0,
        0.0,
        1.0,
        0.0,
        0.0,
        -1.0,
        0.0,
        0.0,
        0.0,
        0.0,
        0.0,
        1.0
      ],
      "name": "4.FBX"
    },
    {
      "children": [
        3,
        8
      ],
      "name": "RootNode"
    },
    {
      "children": [
        4
      ],
      "matrix": [
        0.9992465995193437,
        0.0388098359973813,
        -0.0001731441156377686,
        0.0,
        0.03880988075740903,
        -0.9992091493081163,
        0.00865269290720841,
        0.0,
        0.00016280240817034196,
        -0.008652893666694897,
        -0.9999625497620244,
        0.0,
        -1.9886322021484375,
        6.512570858001709,
        -0.6155164241790771,
        1.0
      ],
      "name": "default001"
    },
    {
      "children": [
        5,
        6,
        7
      ],
      "matrix": [
        1.0,
        0.0,
        -0.0,
        0.0,
        0.0,
        1.0,
        0.0,
        0.0,
        0.0,
        0.0,
        1.0,
        0.0,
        -17.863283157348633,
        4.899952411651611,
        -4.100791931152344,
        1.0
      ],
      "name": "Object_4"
    },
    {
      "mesh": 0,
      "name": "default001_Material #37_0"
    },
    {
      "mesh": 1,
      "name": "default001_Material #37_0"
    },
    {
      "mesh": 2,
      "name": "default001_Material #37_0"
    },
    {
      "children": [
        9
      ],
      "matrix": [
        0.9281600117683411,
        0.0,
        0.0,
        0.0,
        0.0,
        2.060929231203137e-16,
        -0.9281600117683411,
        0.0,
        0.0,
        0.9281600117683411,
        2.060929231203137e-16,
        0.0,
        -1.492055058479309,
        -0.6107842922210693,
        -0.5570182800292969,
        1.0
      ],
      "name": "Cone001"
    },
    {
      "mesh": 3,
      "name": "Cone001__0"
    }
  ],
  "samplers": [
    {
      "magFilter": 9729,
      "minFilter": 9987,
      "wrapS": 10497,
      "wrapT": 10497
    }
  ],
  "scene": 0,
  "scenes": [
    {
      "name": "Sketchfab_Scene",
      "nodes": [
        0
      ]
    }
  ],
  "textures": [
    {
      "sampler": 0,
      "source": 0
    }
  ]
}
